<svg xmlns="http://www.w3.org/2000/svg" viewBox="0 0 32 32" width="32" height="32">
  <!-- Spanischer Hintergrund -->
  <rect width="32" height="32" rx="3" fill="#d32f2f"/>
  
  <!-- Tapa-Teller (Hauptform) -->
  <circle cx="16" cy="16" r="12" fill="#8d6e63" stroke="#5d4037" stroke-width="1"/>
  <circle cx="16" cy="16" r="10" fill="#d7ccc8"/>
  
  <!-- Oliven -->
  <circle cx="12" cy="12" r="2" fill="#2e7d32"/>
  <circle cx="20" cy="12" r="2" fill="#2e7d32"/>
  <circle cx="16" cy="20" r="2" fill="#2e7d32"/>
  
  <!-- Schinken/Jam처n -->
  <ellipse cx="16" cy="14" rx="3" ry="1.5" fill="#d32f2f"/>
  <ellipse cx="13" cy="17" rx="2" ry="1" fill="#d32f2f"/>
  <ellipse cx="19" cy="17" rx="2" ry="1" fill="#d32f2f"/>
  
  <!-- K채se -->
  <rect x="10" y="18" width="4" height="2" rx="1" fill="#fff3e0"/>
  <rect x="18" y="18" width="4" height="2" rx="1" fill="#fff3e0"/>
  
  <!-- Brot-St체cke -->
  <circle cx="9" cy="15" r="1.5" fill="#8d6e63"/>
  <circle cx="23" cy="15" r="1.5" fill="#8d6e63"/>
  
  <!-- Paprika -->
  <ellipse cx="14" cy="10" rx="1" ry="2" fill="#ff5722"/>
  <ellipse cx="18" cy="10" rx="1" ry="2" fill="#ff5722"/>
  
  <!-- Teller-Rand Glanz -->
  <circle cx="16" cy="16" r="10" fill="none" stroke="#fff" stroke-width="0.5" opacity="0.3"/>
  
  <!-- J f체r Jimmy's -->
  <text x="16" y="28" text-anchor="middle" font-family="serif" font-size="8" fill="#fff" font-weight="bold">J</text>
</svg>